<?xml version="1.0" standalone="no"?>
<!DOCTYPE svg PUBLIC "-//W3C//DTD SVG 20010904//EN"
 "http://www.w3.org/TR/2001/REC-SVG-20010904/DTD/svg10.dtd">
<svg version="1.0" xmlns="http://www.w3.org/2000/svg"
 width="1024.000000pt" height="1024.000000pt" viewBox="0 0 1024.000000 1024.000000"
 preserveAspectRatio="xMidYMid meet">
<metadata>
Created by potrace 1.11, written by Peter Selinger 2001-2013
</metadata>
<g transform="translate(0.000000,1024.000000) scale(0.100000,-0.100000)"
fill="#000000" stroke="none">
<path d="M3695 7104 c-398 -62 -740 -308 -918 -662 -98 -195 -132 -340 -131
-567 1 -138 6 -194 30 -289 11 -41 12 -62 5 -69 -6 -6 -11 -8 -11 -4 0 13
-198 -94 -274 -148 -239 -172 -429 -459 -485 -735 -6 -30 -14 -66 -17 -80 -12
-53 -11 -298 1 -376 42 -261 155 -488 333 -671 78 -80 219 -193 240 -193 7 0
12 -4 12 -10 0 -5 5 -10 11 -10 6 0 23 -8 37 -19 71 -49 289 -120 432 -140 38
-6 995 -10 2285 -10 2168 0 2222 0 2307 19 117 27 169 45 262 91 233 117 416
335 501 595 59 181 54 427 -10 619 -63 186 -190 358 -350 476 -62 45 -78 55
-154 96 -58 30 -214 83 -248 83 -24 0 -25 2 -19 48 3 26 8 58 12 72 9 43 12
322 3 395 -16 127 -17 133 -44 245 -31 127 -110 323 -168 414 -6 11 -27 45
-46 75 -144 234 -400 462 -668 596 -346 173 -769 218 -1148 123 -227 -56 -418
-148 -606 -290 l-77 -57 -51 49 c-28 27 -68 62 -89 77 -20 15 -39 31 -42 34
-27 33 -233 139 -345 177 -157 53 -401 73 -570 46z"/>
</g>
</svg>
